<svg id="Capa_2" xmlns="http://www.w3.org/2000/svg" viewBox="0 0 563.6 103.6"><defs><style>.cls-1{fill:#fff}.cls-2{fill:#16e000}</style></defs><g id="Capa_1-2"><path class="cls-1" d="m154 20 11 26 29-26h15l-17 49h-15l9-26-27 24h-2l-10-24-9 26h-15l17-49h14ZM268 34l-12 35h-15l6-19h-26l-7 19h-15l12-35c2-5 4-8 8-11 4-2 9-3 15-3h21c6 0 10 1 12 3 2 3 2 6 1 11Zm-43 5h26l1-4v-2l-3-1-4-1h-9l-8 2c-1 1-3 3-3 6ZM302 69l-6-14-16 14h-18l29-24-11-25h16l7 14 16-14h17l-28 25 11 24h-17ZM341 69h-15l17-49h15l-17 49ZM380 20l11 26 29-26h14l-17 49h-15l9-26-26 24h-3l-10-24-9 26h-15l17-49h15ZM484 20h15l-13 35c-1 5-4 8-7 11-4 2-9 3-15 3h-22c-6 0-10-1-12-3-2-3-2-6 0-11l12-35h15l-11 30v6l2 2h18l3-2 2-2 2-4 11-30ZM550 60l-7 7-9 2h-45l4-11h36l2-1v-1h-1l-25-15-3-4a11 11 0 0 1 1-8l7-7 8-2h46l-4 11h-38v3l26 14 1 1 1 2 1 4-1 4v1Z"/><g><path class="cls-2" d="M138 98h-19l-6-2v-5l4-10c0-2 2-4 3-5l7-2h19l-2 6h-16l-3 1-2 2-2 6v3h11l3-7h7l-5 13ZM173 81l-5 17h-7l3-9h-13l-3 9h-7l6-17 3-5 7-2h11l5 2v5Zm-20 2h13v-2l-1-1h-7l-3 1-2 2ZM186 74l5 13 14-13h7l-8 24h-7l4-13-13 12h-1l-4-12-5 13h-7l8-24h7ZM214 98h-7l8-24h8l-9 24ZM253 74l-8 24h-7l-8-14-5 14h-7l8-24h6l9 14 5-14h7ZM275 98h-18l-6-2v-5l3-10 4-5 7-2h18l-2 6h-15l-4 1-2 2-2 6v3h12l2-7h7l-4 13ZM306 83h13l3-9h7l-8 24h-7l3-9h-12l-4 9h-7l8-24h7l-3 9ZM357 81l-6 17h-7l3-9h-12l-3 9h-7l5-17 4-5 7-2h10l6 2v5Zm-20 2h12l1-1-1-1-1-1h-6l-4 1-1 2ZM377 90l5 8h-8l-5-8h-4l-3 8h-7l8-24h18l6 2v7l-4 5-6 2Zm0-10h-9l-2 4h12l1-1 1-1v-2h-3ZM417 81l-3 10-4 5-7 2h-18l8-24h18l6 2v5Zm-10-1h-9l-4 12h12l1-2 1-1 2-6v-2l-1-1h-2ZM445 89l5-15h7l-5 17-4 5-7 2h-18l-5-2v-5l5-17h7l-5 15v3h6l6-18h7l-6 18h6l1-2v-1ZM485 81l-5 17h-7l3-9h-13l-3 9h-7l6-17c0-2 2-4 3-5l7-2h10l6 2v5Zm-20 2h13v-2l-1-1h-7l-3 1-2 2ZM505 90l5 8h-8l-5-8h-4l-3 8h-7l8-24h19c3 0 4 1 5 2l1 5-1 2-3 5-7 2Zm0-10h-9l-1 4h12l1-1v-1l1-1-1-1h-3ZM540 98h-18l-6-2v-5l3-10 4-5 7-2h18l-2 6h-15l-4 1-2 2h20l-2 6h-19l-1 1v2h19l-2 6Z"/></g><path class="cls-2" d="M52 0a52 52 0 1 0 0 104A52 52 0 0 0 52 0Zm0 94a42 42 0 1 1 0-84 42 42 0 0 1 0 84Z"/><path class="cls-2" d="M70 35c-1 0-2 7-1-2 1-3-1-5-3-6-4-4-12-6-18-5-4 1-9 2-12 6l-2 5c2 9 0 2 0 2s-3 27-2 29l15 12 2 6-1-5-1-25-10-8v-2l12 7 1 11 2 2 2-2 1-11 12-7-1 2-9 8-1 19-2 11 2-6 16-12-2-29ZM49 24l-7 3-3 4v6h-1c-8-10 11-13 12-14l-1 1Z"/></g></svg>